<svg id="visual" viewBox="0 0 900 600" width="900" height="600" xmlns="http://www.w3.org/2000/svg" xmlns:xlink="http://www.w3.org/1999/xlink" version="1.1"><rect x="0" y="0" width="900" height="600" fill="#001220"></rect><defs><linearGradient id="grad1_0" x1="33.3%" y1="0%" x2="100%" y2="100%"><stop offset="20%" stop-color="#001220" stop-opacity="1"></stop><stop offset="80%" stop-color="#001220" stop-opacity="1"></stop></linearGradient></defs><defs><linearGradient id="grad2_0" x1="0%" y1="0%" x2="66.7%" y2="100%"><stop offset="20%" stop-color="#001220" stop-opacity="1"></stop><stop offset="80%" stop-color="#001220" stop-opacity="1"></stop></linearGradient></defs><g transform="translate(900, 0)"><path d="M0 513.8C-25.7 479.9 -51.5 445.9 -89.5 450.2C-127.6 454.4 -178.1 496.9 -196.6 474.7C-215.2 452.5 -201.8 365.7 -230 344.2C-258.2 322.8 -328 366.8 -361.3 361.3C-394.7 355.9 -391.5 301.1 -389.1 260C-386.7 218.9 -385.1 191.5 -405.6 168C-426.1 144.5 -468.7 124.9 -490.4 97.5C-512.1 70.2 -513 35.1 -513.8 0L0 0Z" fill="#FBAE3C"></path></g><g transform="translate(0, 600)"><path d="M0 -513.8C26.1 -473.2 52.3 -432.6 85.8 -431.5C119.4 -430.5 160.4 -469.1 196.6 -474.7C232.8 -480.3 264.2 -452.8 277.8 -415.7C291.4 -378.6 287.2 -331.9 307.6 -307.6C327.9 -283.3 372.8 -281.5 384.1 -256.7C395.5 -231.9 373.2 -184.1 364.9 -151.2C356.6 -118.2 362.2 -100.2 389.4 -77.5C416.5 -54.7 465.1 -27.4 513.8 0L0 0Z" fill="#FBAE3C"></path></g></svg>